<mxfile host="app.diagrams.net" modified="2021-10-07T08:05:15.109Z" agent="5.0 (Windows NT 10.0; Win64; x64) AppleWebKit/537.36 (KHTML, like Gecko) Chrome/94.0.4606.61 Safari/537.36" etag="aVZdFIvWfz1IATwxBpJs" version="15.4.3" type="github">
  <diagram id="RJwkC6JrTSD5yiBWlyb1" name="Page-1">
    <mxGraphModel dx="782" dy="706" grid="1" gridSize="10" guides="1" tooltips="1" connect="1" arrows="1" fold="1" page="1" pageScale="1" pageWidth="827" pageHeight="1169" math="0" shadow="0">
      <root>
        <mxCell id="0" />
        <mxCell id="1" parent="0" />
        <mxCell id="Rm7CjcZt4RvGxhCYvtOn-1" value="" style="rounded=0;whiteSpace=wrap;html=1;" vertex="1" parent="1">
          <mxGeometry x="40" y="170" width="120" height="60" as="geometry" />
        </mxCell>
        <mxCell id="Rm7CjcZt4RvGxhCYvtOn-2" value="" style="rounded=0;whiteSpace=wrap;html=1;" vertex="1" parent="1">
          <mxGeometry x="200" y="290" width="120" height="60" as="geometry" />
        </mxCell>
        <mxCell id="Rm7CjcZt4RvGxhCYvtOn-3" value="" style="rhombus;whiteSpace=wrap;html=1;" vertex="1" parent="1">
          <mxGeometry x="220" y="180" width="80" height="40" as="geometry" />
        </mxCell>
        <mxCell id="Rm7CjcZt4RvGxhCYvtOn-6" value="" style="rounded=0;whiteSpace=wrap;html=1;" vertex="1" parent="1">
          <mxGeometry x="360" y="290" width="120" height="60" as="geometry" />
        </mxCell>
        <mxCell id="Rm7CjcZt4RvGxhCYvtOn-7" value="" style="rounded=0;whiteSpace=wrap;html=1;" vertex="1" parent="1">
          <mxGeometry x="360" y="50" width="120" height="60" as="geometry" />
        </mxCell>
        <mxCell id="Rm7CjcZt4RvGxhCYvtOn-8" value="" style="rounded=0;whiteSpace=wrap;html=1;" vertex="1" parent="1">
          <mxGeometry x="510" y="170" width="120" height="60" as="geometry" />
        </mxCell>
        <mxCell id="Rm7CjcZt4RvGxhCYvtOn-9" value="" style="group" vertex="1" connectable="0" parent="1">
          <mxGeometry x="360" y="170" width="120" height="60" as="geometry" />
        </mxCell>
        <mxCell id="Rm7CjcZt4RvGxhCYvtOn-5" value="" style="rounded=0;whiteSpace=wrap;html=1;" vertex="1" parent="Rm7CjcZt4RvGxhCYvtOn-9">
          <mxGeometry width="120" height="60" as="geometry" />
        </mxCell>
        <mxCell id="Rm7CjcZt4RvGxhCYvtOn-4" value="Vorlesung" style="rhombus;whiteSpace=wrap;html=1;" vertex="1" parent="Rm7CjcZt4RvGxhCYvtOn-9">
          <mxGeometry x="20" y="10" width="80" height="40" as="geometry" />
        </mxCell>
      </root>
    </mxGraphModel>
  </diagram>
</mxfile>
